<?xml version="1.0" encoding="UTF-8"?>
<svg id="Layer_1" data-name="Layer 1" xmlns="http://www.w3.org/2000/svg" version="1.1" viewBox="0 0 500.4 114.9">
 <defs>
  <linearGradient id="logo-gradient" gradientUnits="userSpaceOnUse"  x1="675.2264" y1="-417.4639" x2="2034.2549" y2="1272.8267" gradientTransform="matrix(1 0 0 -1 0 626)">
    <stop stop-color="#A4BA15" offset="0">
      <animate attributeName="stop-color" values="#A4BA15;#6942C1;#D80F80;#E15F10;#DECD4A;#A4BA15" dur="3s" repeatCount="indefinite"></animate>
    </stop>
    <stop stop-color="#6942C1" offset=".1250">
      <animate attributeName="stop-color" values="#6942C1;#D80F80;#E15F10;#DECD4A;#A4BA15;#6942C1" dur="3s" repeatCount="indefinite"></animate>
    </stop>
    <stop stop-color="#D80F80" offset=".2500">
      <animate attributeName="stop-color" values="#D80F80;#E15F10;#DECD4A;#A4BA15;#6942C1;#D80F80" dur="3s" repeatCount="indefinite"></animate>
    </stop>
    <stop stop-color="#E15F10" offset=".3750">
      <animate attributeName="stop-color" values="#E15F10;#DECD4A;#A4BA15;#6942C1;#D80F80;#E15F10" dur="3s" repeatCount="indefinite"></animate>
    </stop>
    <stop stop-color="#DECD4A" offset=".5000">
      <animate attributeName="stop-color" values="#DECD4A;#A4BA15;#6942C1;#D80F80;#E15F10;#DECD4A" dur="3s" repeatCount="indefinite"></animate>
    </stop>
  </linearGradient>
 </defs>
<g>
  <path fill="url('#logo-gradient')" d="M36.4,33.7C16.3,33.7,1.7,50.3,1.7,73.2s14.2,39.1,34.2,39.1,28.2-9.7,31.2-24h-9c-2.6,9.7-11.4,15.9-22.5,15.9s-25.3-12.4-25.3-31.1,10.4-31.3,25.9-31.3,22.4,10.3,22.8,25H26.5c-2.3,0-4.2,1.6-4.2,3.8s1.9,3.9,4.2,3.9h41.3c2.6-23-11.3-40.7-31.5-40.7"/>
  <path fill="url('#logo-gradient')" d="M119.6,33.7c-10.1,0-20.4,5.9-24.7,14.6v-12.4h-8.7v36c0,2.5,2,4.3,4.5,4.3s4.3-2,4.3-4.3v-5.6c0-13.4,10.5-24.3,23.7-24.3s20.8,9,20.8,22.7v47.6h8.8v-49.1c0-17.9-11.3-29.5-28.7-29.5"/>
  <path fill="url('#logo-gradient')" d="M90.7,87.3c-2.5,0-4.5,2-4.5,4.3v20.6h8.8v-20.6c0-2.3-1.9-4.3-4.3-4.3"/>
  <polygon fill="url('#logo-gradient')" points="159.8 35.9 192.6 112.3 202 112.3 169.2 35.9 159.8 35.9"/>
  <path fill="url('#logo-gradient')" d="M203.5,83.1c-1,2.6-.1,5.1,2,6.1,2.3.9,4.8-.3,5.8-2.9l22.1-50.4h-9.4l-20.5,47.2h0Z"/>
  <path fill="url('#logo-gradient')" d="M275.4,33.7c-20.1,0-34.7,16.6-34.7,39.4s14.2,39.1,34.2,39.1,28.2-9.7,31.2-24h-9c-2.6,9.7-11.4,15.9-22.5,15.9s-25.3-12.4-25.3-31.1,10.4-31.3,25.9-31.3,22.4,10.3,22.8,25h-32.5c-2.3,0-4.2,1.6-4.2,3.8s1.9,3.9,4.2,3.9h41.3c2.6-23-11.3-40.7-31.5-40.7"/>
  <path fill="url('#logo-gradient')" d="M379.1,49.3c-4.6-9.8-13.7-15.6-24.6-15.6-15.6,0-28.3,11.7-30.9,28-.7,4,1,6.5,4.2,6.5s3.9-1.4,4.3-3.8c2.6-13.6,11.7-22.4,23.4-22.4s23.5,12.1,23.5,30.9-9.4,30.9-23.5,30.9-22.2-9.7-23.7-24.8h-9c1.6,19.8,14.3,33.2,31.6,33.2s20.1-5.9,24.7-15.9v15.9h8.7V2.5h-8.8v46.8h.1Z"/>
  <path fill="url('#logo-gradient')" d="M441.8,67h7c2.3,0,4.2,1.6,4.2,3.8s-1.9,3.9-4.2,3.9h-18.5c-9,.3-17.3,2.3-17.6,12.6-.2,6.9,4,10.7,8.4,13.3,2.5,1.5,6.9,2.9,9.9,3,17.6.6,30.9-13.2,30.9-31.4s-10.1-31.1-25.3-31.1-19.9,6.2-22.5,15.9h-9c3-14.3,15.6-24,31.2-24s34.1,16.4,34.1,39.3,0,1.3,0,2h0l-.1,38h-9.4v-13.8c-7,8.2-17.2,13.1-28.1,13.1s-22.2-4.4-26.8-14c-4.4-9.2-1.9-21.6,7.3-26.7,4.8-2.6,10.2-3.7,15.8-3.9h12.8-.1Z"/>
  <path fill="url('#logo-gradient')" d="M481.7,41.8c0-5,3.6-8.7,8.5-8.7s8.5,3.7,8.5,8.7-3.6,8.7-8.5,8.7-8.5-3.7-8.5-8.7M490.2,48.6c3.7,0,6.5-2.8,6.5-6.8s-2.7-6.8-6.5-6.8-6.5,2.8-6.5,6.8,2.7,6.8,6.5,6.8M488.7,46.3v-3.2h1.7l1.5,3.2h2.1l-1.7-3.6c.9-.5,1.5-1.4,1.5-2.5,0-1.6-1.3-2.8-3.1-2.8h-3.9v8.9s1.9,0,1.9,0ZM488.7,43v-3.9h2c.7,0,1.1.4,1.1,1s-.4,1-1.1,1h-2.6v1.8h.5l.1.1ZM490.4,43h.4c.6,0,1.1-.1,1.5-.3v-.2h-2l.2.5h-.1Z"/>
</g>
</svg>