<svg width="154" height="188" viewBox="0 0 154 188" xmlns="http://www.w3.org/2000/svg">
  <g id="g21727" transform="matrix(1.4637002,0,0,1.4637002,2.140265,1.7270819)">
    <path d="m 0,0 v 45.7226 c 0,21.7428 6.32127,40.2889 18.7796,55.1294 10.3569,12.344 22.7064,19.497 30.0826,23.771 L 51.24,126 53.6178,124.623 C 60.994,120.349 73.3435,113.196 83.7004,100.852 96.1587,86.0115 102.48,67.4654 102.48,45.7643 V 0 Z" id="path18295" style="fill:#fff" />
    <path d="M 4.79736,4.72461 V 45.723 c 0,46.2401 29.37094,64.886 46.50114,74.81 17.1219,-9.924 46.5011,-28.5699 46.5011,-74.81 V 4.72461 Z" id="path18299" style="fill:#a31f36" />
    <path d="M 62.8531,29.1044 V 44.654 H 39.6276 V 29.1044 c 0,-2.2119 1.4233,-5.3335 4.5965,-7.4452 V 16.7598 H 25.5952 v 10.0159 h 3.9519 V 73.6 h -3.9519 v 9.9324 h 18.6289 v -4.8911 c -3.1732,-2.12 -4.5965,-5.2416 -4.5965,-7.4451 V 54.6115 h 23.2171 v 16.5763 c 0,2.2035 -1.4233,5.3252 -4.5965,7.4452 v 4.8994 H 76.8771 V 73.5666 H 72.9252 V 26.7757 h 3.9519 V 16.7598 H 58.2565 v 4.8994 c 3.1732,2.1117 4.5966,5.2333 4.5966,7.4452 z" fill="#fff" id="path18297" />
  </g>
</svg>
